<?xml version="1.0" encoding="utf-8"?>
<svg viewBox="-2.607 1.274 228.66 39.08" xmlns="http://www.w3.org/2000/svg">
  <style>.cls-1{fill:#fed136;}</style>
  <path class="cls-1" d="M 21.159 6.181 C 21.223 6.555 21.278 6.816 21.305 6.957 C 21.343 7.147 21.358 7.341 21.351 7.536 C 21.356 8.243 21.197 8.941 20.886 9.572 C 20.622 10.154 20.172 10.626 19.609 10.908 C 19.172 10.31 18.638 9.792 18.032 9.376 C 17.391 8.94 16.703 8.583 15.98 8.311 C 15.231 8.036 14.459 7.834 13.674 7.704 C 12.905 7.575 12.127 7.51 11.348 7.508 C 10.64 7.502 9.931 7.561 9.233 7.685 C 8.638 7.79 8.054 7.956 7.491 8.18 C 7.046 8.351 6.639 8.616 6.297 8.956 C 6.019 9.237 5.861 9.62 5.859 10.021 C 5.986 10.604 6.309 11.123 6.771 11.487 C 7.357 12.038 7.995 12.527 8.677 12.945 C 9.425 13.421 10.263 13.879 11.175 14.346 C 12.087 14.813 12.999 15.28 13.911 15.672 C 15.005 16.205 15.953 16.691 16.746 17.148 C 17.469 17.543 18.133 18.043 18.716 18.634 C 19.226 19.168 19.623 19.803 19.883 20.502 C 20.121 21.293 20.219 22.123 20.175 22.949 C 20.182 24.027 19.997 25.097 19.628 26.107 C 19.277 27.064 18.732 27.937 18.032 28.666 C 17.31 29.407 16.447 29.989 15.497 30.376 C 14.435 30.792 13.306 30.998 12.169 30.983 C 10.869 30.963 9.576 30.774 8.321 30.423 C 6.961 30.065 5.645 29.548 4.4 28.881 C 3.275 28.309 2.25 27.551 1.364 26.639 C 0.607 25.95 0.156 24.976 0.115 23.94 C 0.146 23.361 0.273 22.792 0.489 22.258 C 0.803 21.46 1.257 20.729 1.829 20.1 C 1.969 20.961 2.32 21.771 2.85 22.454 C 3.624 23.484 4.595 24.338 5.704 24.967 C 6.845 25.65 8.072 26.168 9.352 26.508 C 10.505 26.812 11.689 26.972 12.88 26.985 C 13.881 27.019 14.881 26.86 15.825 26.518 C 16.479 26.271 17.08 25.897 17.594 25.415 C 17.988 25.054 18.3 24.607 18.506 24.108 C 18.654 23.772 18.752 23.416 18.798 23.052 C 18.76 22.565 18.549 22.11 18.205 21.772 C 17.753 21.307 17.241 20.908 16.682 20.586 C 16.053 20.203 15.315 19.811 14.476 19.409 C 13.637 19.007 12.762 18.615 11.859 18.223 C 10.51 17.606 9.333 17.027 8.358 16.485 C 7.497 16.024 6.686 15.47 5.941 14.832 C 5.361 14.346 4.886 13.741 4.546 13.057 C 4.248 12.395 4.101 11.673 4.118 10.945 C 4.124 9.691 4.506 8.468 5.212 7.442 C 6.004 6.291 7.12 5.413 8.412 4.93 C 9.117 4.614 9.859 4.39 10.619 4.266 C 11.381 4.135 12.153 4.065 12.926 4.061 C 14.336 4.062 15.737 4.263 17.093 4.659 C 18.481 5.07 19.84 5.578 21.159 6.181 Z" style="stroke-linecap: round; paint-order: stroke;"/>
  <path class="cls-1" d="M 24.288 13.22 C 24.116 12.947 24.006 12.64 23.968 12.32 C 23.877 11.929 23.827 11.53 23.818 11.13 C 24.403 11.227 24.995 11.277 25.588 11.28 L 27.148 11.28 C 27.508 10.58 27.888 9.88 28.298 9.19 C 28.708 8.5 29.118 7.87 29.508 7.3 C 29.846 6.798 30.21 6.314 30.598 5.85 C 30.831 5.56 31.1 5.301 31.398 5.08 C 31.702 5.088 32.003 5.128 32.298 5.2 C 32.668 5.29 33.038 5.39 33.418 5.52 C 33.798 5.65 34.138 5.79 34.418 5.93 C 34.654 6.026 34.869 6.168 35.048 6.35 C 34.338 7.25 33.738 8.07 33.228 8.83 C 32.718 9.59 32.168 10.47 31.578 11.45 L 33.018 11.45 C 33.51 11.45 34.001 11.417 34.488 11.35 C 34.611 11.475 34.706 11.625 34.768 11.79 C 34.839 11.964 34.876 12.151 34.878 12.34 C 33.525 12.82 32.094 13.047 30.658 13.01 C 30.068 14.15 29.548 15.28 29.088 16.4 C 28.628 17.52 28.238 18.61 27.918 19.65 C 27.615 20.615 27.368 21.596 27.178 22.59 C 27.009 23.409 26.919 24.243 26.908 25.08 C 26.908 26.12 27.298 26.7 28.078 26.82 C 28.764 26.725 29.436 26.547 30.078 26.29 C 30.691 26.042 31.264 25.705 31.778 25.29 C 31.895 25.451 31.977 25.635 32.018 25.83 C 31.813 26.105 31.571 26.351 31.298 26.56 C 30.941 26.857 30.567 27.134 30.178 27.39 C 29.804 27.645 29.413 27.875 29.008 28.08 C 28.742 28.225 28.456 28.33 28.158 28.39 C 27.551 28.385 26.951 28.266 26.388 28.04 C 25.817 27.811 25.276 27.512 24.778 27.15 C 24.32 26.823 23.921 26.421 23.598 25.96 C 23.311 25.59 23.15 25.138 23.138 24.67 C 23.15 23.951 23.227 23.234 23.368 22.53 C 23.518 21.66 23.738 20.73 24.018 19.71 C 24.298 18.69 24.638 17.63 25.018 16.52 C 25.398 15.41 25.808 14.31 26.258 13.22 L 24.288 13.22 Z"/>
  <path class="cls-1" d="M 50.448 26.07 C 50.558 25.39 50.768 24.49 51.068 23.37 C 51.368 22.25 51.708 21.05 52.068 19.79 C 52.428 18.53 52.898 17.26 53.338 15.98 C 53.778 14.7 54.228 13.56 54.648 12.55 C 54.889 11.961 55.163 11.387 55.468 10.83 C 55.68 10.461 55.942 10.124 56.248 9.83 C 56.588 9.883 56.923 9.967 57.248 10.08 C 57.592 10.194 57.926 10.334 58.248 10.5 C 58.553 10.654 58.85 10.825 59.138 11.01 C 59.36 11.156 59.562 11.33 59.738 11.53 C 59.074 12.317 58.509 13.183 58.058 14.11 C 57.51 15.288 57.049 16.504 56.678 17.75 C 57.945 16.616 59.072 15.53 60.058 14.49 C 61.068 13.413 61.985 12.252 62.798 11.02 C 63.021 10.887 63.28 10.827 63.538 10.85 C 63.878 10.842 64.217 10.896 64.538 11.01 C 64.797 11.076 65.024 11.232 65.178 11.45 C 64.761 12.521 64.544 13.66 64.538 14.81 C 64.486 15.616 64.645 16.423 64.998 17.15 C 64.89 17.447 64.728 17.722 64.518 17.96 C 64.215 18.362 63.881 18.74 63.518 19.09 C 62.867 18.758 62.286 18.303 61.808 17.75 C 61.326 17.194 60.953 16.553 60.708 15.86 C 59.711 16.55 58.765 17.312 57.878 18.14 C 57.103 18.873 56.431 19.707 55.878 20.62 C 55.289 21.606 54.813 22.656 54.458 23.75 C 54.078 24.93 53.698 26.34 53.348 27.97 C 53.087 27.924 52.831 27.846 52.588 27.74 C 52.279 27.603 51.982 27.443 51.698 27.26 C 51.419 27.081 51.155 26.88 50.908 26.66 C 50.712 26.501 50.554 26.299 50.448 26.07 Z"/>
  <path class="cls-1" d="M 39.745 27.588 C 38.47 27.482 37.299 26.838 36.525 25.818 C 35.683 24.66 35.26 23.249 35.325 21.818 C 35.332 20.824 35.473 19.835 35.745 18.878 C 36.036 17.836 36.442 16.83 36.955 15.878 C 37.477 14.915 38.093 14.008 38.795 13.168 C 39.471 12.348 40.243 11.612 41.095 10.978 C 42.123 10.113 43.404 9.604 44.745 9.528 C 45.699 10.151 46.469 11.018 46.975 12.038 L 47.295 12.038 L 47.605 12.038 C 48.865 12.038 49.485 13.148 49.485 15.368 C 49.496 16.81 49.248 18.243 48.755 19.598 C 48.294 20.91 47.618 22.137 46.755 23.228 C 45.894 24.315 44.852 25.245 43.675 25.978 C 42.467 26.736 41.138 27.28 39.745 27.588 Z M 41.555 16.438 C 41.139 17.002 40.761 17.593 40.425 18.208 C 40.076 18.83 39.769 19.475 39.505 20.138 C 39.259 20.745 39.058 21.37 38.905 22.008 C 38.767 22.537 38.693 23.081 38.685 23.628 C 38.685 24.181 38.783 24.73 38.975 25.248 C 39.155 25.768 39.375 26.068 39.605 26.138 C 40.662 25.905 41.657 25.452 42.525 24.808 C 43.43 24.141 44.211 23.322 44.835 22.388 C 45.5 21.368 46.012 20.256 46.355 19.088 C 46.727 17.811 46.912 16.488 46.905 15.158 C 46.914 14.672 46.877 14.187 46.795 13.708 C 46.734 13.383 46.616 13.072 46.445 12.788 C 45.423 13.1 44.476 13.621 43.665 14.318 C 42.887 14.946 42.18 15.657 41.555 16.438 Z"/>
  <path class="cls-1" d="M 76.428 16.728 C 74.016 16.69 71.8 16.449 70.346 16.065 C 68.74 15.633 67.934 15.105 68.06 14.567 C 68.07 14.195 68.343 13.825 68.872 13.468 C 69.407 13.077 70.166 12.7 71.139 12.344 C 72.125 11.984 73.288 11.644 74.615 11.33 C 75.896 11.023 77.354 10.748 78.96 10.511 C 80.904 10.187 83.321 9.997 85.855 9.967 C 87.66 10.199 89.115 10.524 90.067 10.907 L 90.671 10.907 L 91.276 10.907 C 93.637 10.907 94.808 11.323 94.808 12.153 C 94.825 12.693 94.364 13.229 93.449 13.737 C 92.568 14.228 91.293 14.686 89.67 15.096 C 88.044 15.502 86.076 15.85 83.852 16.125 C 81.572 16.409 79.059 16.613 76.428 16.728 Z M 79.923 12.554 C 79.137 12.765 78.423 12.986 77.788 13.217 C 77.137 13.451 76.557 13.692 76.051 13.939 C 75.584 14.166 75.206 14.4 74.917 14.639 C 74.666 14.838 74.526 15.04 74.501 15.245 C 74.501 15.453 74.687 15.657 75.05 15.853 C 75.408 16.047 75.805 16.159 76.258 16.185 C 78.251 16.096 80.129 15.927 81.774 15.688 C 83.472 15.437 84.942 15.13 86.119 14.781 C 87.383 14.4 88.349 13.984 88.99 13.547 C 89.702 13.069 90.052 12.573 90.029 12.075 C 90.046 11.893 89.977 11.711 89.821 11.531 C 89.706 11.41 89.481 11.294 89.16 11.187 C 87.195 11.302 85.375 11.496 83.814 11.761 C 82.383 11.997 81.079 12.264 79.923 12.554 Z" style=""/>
  <path style="fill: rgb(254, 209, 54); paint-order: stroke; fill-rule: nonzero; stroke: rgba(0, 0, 0, 0);" d="M 74.425 16.551 C 71.564 19.382 74.927 23.163 78.009 23.691 C 81.598 24.305 85.513 24.909 89.057 23.961 C 90.091 23.684 92.742 21.548 93.478 21.794 C 94.967 22.29 94.933 24.176 94.075 25.026 C 92.166 26.915 89.085 27.018 86.489 27.663 C 79.978 29.278 73.103 29.543 68.339 24.779 C 67.597 24.037 67.896 22.77 67.466 21.911 C 65.876 18.731 66.997 12.978 71.477 12.978"/>
</svg>